<svg width="1281" height="797" viewBox="0 0 1281 797" fill="none" xmlns="http://www.w3.org/2000/svg">
<mask id="mask0" mask-type="alpha" maskUnits="userSpaceOnUse" x="0" y="-3" width="1285" height="800">
<path d="M1285 -3H0V797H1185C1240.23 797 1285 752.228 1285 697V-3Z" fill="url(#paint0_linear)"/>
</mask>
<g mask="url(#mask0)">
<path d="M1325.57 341.525H1314.74C1312.5 341.525 1310.68 343.343 1310.68 345.586V589.864C1310.68 592.948 1308.18 595.448 1305.09 595.448C1302.01 595.448 1299.51 592.948 1299.51 589.864V433.796C1299.51 428.273 1295.03 423.796 1289.51 423.796H1279.05C1273.53 423.796 1269.05 428.273 1269.05 433.796V443.59C1269.05 449.113 1264.57 453.59 1259.05 453.59H1193.07C1188.86 453.59 1185.45 457 1185.45 461.207V465.441C1185.45 467.31 1183.94 468.825 1182.07 468.825C1180.2 468.825 1178.68 470.34 1178.68 472.21V526.553C1178.68 531.133 1174.97 534.845 1170.39 534.845C1165.81 534.845 1162.1 538.558 1162.1 543.137V579.354C1162.1 584.877 1157.62 589.354 1152.1 589.354H1151.11C1145.59 589.354 1141.11 593.831 1141.11 599.354V652.329C1141.11 654.385 1139.45 656.052 1137.39 656.052C1135.33 656.052 1133.67 654.385 1133.67 652.329V345.248C1133.67 343.566 1132.3 342.202 1130.62 342.202C1128.94 342.202 1127.57 340.838 1127.57 339.156V312.237C1127.57 309.34 1125.23 306.991 1122.33 306.991C1119.43 306.991 1117.08 304.642 1117.08 301.745V275.673C1117.08 273.71 1115.49 272.119 1113.53 272.119C1111.57 272.119 1109.98 270.528 1109.98 268.565V247.247C1109.98 241.724 1105.5 237.247 1099.98 237.247H1074.62C1069.1 237.247 1064.62 241.724 1064.62 247.247V268.565C1064.62 270.528 1063.03 272.119 1061.07 272.119C1059.11 272.119 1057.51 273.71 1057.51 275.673V301.745C1057.51 304.642 1055.17 306.991 1052.27 306.991C1049.37 306.991 1047.02 309.34 1047.02 312.237V339.325C1047.02 340.727 1045.89 341.863 1044.48 341.863C1043.08 341.863 1041.95 343 1041.95 344.402V553.638C1041.95 556.909 1039.29 559.561 1036.02 559.561C1032.75 559.561 1030.1 562.212 1030.1 565.484V648.775C1030.1 652.794 1026.84 656.052 1022.82 656.052H1016.22C1015.85 656.052 1015.55 655.748 1015.55 655.374C1015.55 655 1015.24 654.697 1014.87 654.697H1012.67C1012.02 654.697 1011.49 654.167 1011.49 653.512C1011.49 652.858 1012.02 652.327 1012.67 652.327H1013.85C1014.79 652.327 1015.55 651.569 1015.55 650.635C1015.55 649.7 1014.79 648.942 1013.85 648.942H1012.84C1012.09 648.942 1011.49 648.335 1011.49 647.587C1011.49 646.84 1012.09 646.233 1012.84 646.233H1013.85C1014.79 646.233 1015.55 645.475 1015.55 644.54C1015.55 643.605 1014.79 642.848 1013.85 642.848H1012.67C1012.02 642.848 1011.49 642.317 1011.49 641.663C1011.49 641.008 1012.02 640.478 1012.67 640.478H1013.85C1014.79 640.478 1015.55 639.72 1015.55 638.785C1015.55 637.85 1014.79 637.092 1013.85 637.092H1012.67C1012.02 637.092 1011.49 636.561 1011.49 635.907C1011.49 635.253 1012.02 634.722 1012.67 634.722H1013.85C1014.79 634.722 1015.55 633.964 1015.55 633.029C1015.55 632.094 1014.79 631.336 1013.85 631.336H1012.67C1012.02 631.336 1011.49 630.806 1011.49 630.151C1011.49 629.497 1012.02 628.966 1012.67 628.966H1013.85C1014.79 628.966 1015.55 628.208 1015.55 627.274C1015.55 626.339 1014.79 625.581 1013.85 625.581H1012.67C1012.02 625.581 1011.49 625.05 1011.49 624.396C1011.49 623.741 1012.02 623.211 1012.67 623.211H1013.85C1014.79 623.211 1015.55 622.453 1015.55 621.518C1015.55 620.583 1014.79 619.825 1013.85 619.825H1012.67C1012.02 619.825 1011.49 619.295 1011.49 618.64C1011.49 617.986 1012.02 617.455 1012.67 617.455H1013.85C1014.79 617.455 1015.55 616.697 1015.55 615.762C1015.55 614.827 1014.79 614.07 1013.85 614.07H1012.67C1012.02 614.07 1011.49 613.539 1011.49 612.885C1011.49 612.23 1012.02 611.7 1012.67 611.7H1013.85C1014.79 611.7 1015.55 610.942 1015.55 610.007C1015.55 609.072 1014.79 608.314 1013.85 608.314H1012.67C1012.02 608.314 1011.49 607.783 1011.49 607.129C1011.49 606.475 1012.02 605.944 1012.67 605.944H1013.85C1014.79 605.944 1015.55 605.186 1015.55 604.251C1015.55 603.316 1014.79 602.558 1013.85 602.558H1012.67C1012.02 602.558 1011.49 602.028 1011.49 601.373C1011.49 600.719 1012.02 600.188 1012.67 600.188H1013.85C1014.79 600.188 1015.55 599.43 1015.55 598.496C1015.55 597.561 1014.79 596.803 1013.85 596.803H1013.52C1012.39 596.803 1011.49 595.893 1011.49 594.772V594.094C1011.49 592.972 1012.39 592.063 1013.52 592.063H1013.85C1014.79 592.063 1015.55 591.305 1015.55 590.37C1015.55 589.435 1014.79 588.677 1013.85 588.677H1012.67C1012.02 588.677 1011.49 588.147 1011.49 587.492C1011.49 586.838 1012.02 586.307 1012.67 586.307H1013.85C1014.79 586.307 1015.55 585.549 1015.55 584.614C1015.55 583.679 1014.79 582.922 1013.85 582.922H1012.67C1012.02 582.922 1011.49 582.391 1011.49 581.737C1011.49 581.082 1012.02 580.552 1012.67 580.552H1013.85C1014.79 580.552 1015.55 579.794 1015.55 578.859C1015.55 577.924 1014.79 577.166 1013.85 577.166H1012.67C1012.02 577.166 1011.49 576.635 1011.49 575.981C1011.49 575.327 1012.02 574.796 1012.67 574.796H1013.85C1014.79 574.796 1015.55 574.038 1015.55 573.103C1015.55 572.168 1014.79 571.41 1013.85 571.41H1012.67C1012.02 571.41 1011.49 570.88 1011.49 570.225C1011.49 569.571 1012.02 569.04 1012.67 569.04H1013.85C1014.79 569.04 1015.55 568.282 1015.55 567.348C1015.55 566.413 1014.79 565.655 1013.85 565.655H1012.67C1012.02 565.655 1011.49 565.124 1011.49 564.47C1011.49 563.815 1012.02 563.285 1012.67 563.285H1013.85C1014.79 563.285 1015.55 562.527 1015.55 561.592C1015.55 560.657 1014.79 559.899 1013.85 559.899H1012.67C1012.02 559.899 1011.49 559.369 1011.49 558.714C1011.49 558.06 1012.02 557.529 1012.67 557.529H1013.85C1014.79 557.529 1015.55 556.771 1015.55 555.836C1015.55 554.901 1014.79 554.144 1013.85 554.144H1012.67C1012.02 554.144 1011.49 553.613 1011.49 552.959C1011.49 552.304 1012.02 551.774 1012.67 551.774H1013.85C1014.79 551.774 1015.55 551.016 1015.55 550.081C1015.55 549.146 1014.79 548.388 1013.85 548.388H1012.67C1012.02 548.388 1011.49 547.857 1011.49 547.203C1011.49 546.548 1012.02 546.018 1012.67 546.018H1013.85C1014.79 546.018 1015.55 545.26 1015.55 544.325C1015.55 543.39 1014.79 542.632 1013.85 542.632H1012.67C1012.02 542.632 1011.49 542.102 1011.49 541.447C1011.49 540.793 1012.02 540.262 1012.67 540.262H1013.85C1014.79 540.262 1015.55 539.504 1015.55 538.57C1015.55 537.635 1014.79 536.877 1013.85 536.877H1012.67C1012.02 536.877 1011.49 536.346 1011.49 535.692C1011.49 535.037 1012.02 534.507 1012.67 534.507H1013.85C1014.79 534.507 1015.55 533.749 1015.55 532.814C1015.55 531.879 1014.79 531.121 1013.85 531.121H1012.67C1012.02 531.121 1011.49 530.591 1011.49 529.936C1011.49 529.282 1012.02 528.751 1012.67 528.751H1013.85C1014.79 528.751 1015.55 527.993 1015.55 527.058C1015.55 526.123 1014.79 525.366 1013.85 525.366H1012.67C1012.02 525.366 1011.49 524.835 1011.49 524.181C1011.49 523.526 1012.02 522.996 1012.67 522.996H1013.85C1014.79 522.996 1015.55 522.238 1015.55 521.303C1015.55 520.368 1014.79 519.61 1013.85 519.61H1013.52C1012.39 519.61 1011.49 518.701 1011.49 517.579V516.224C1011.49 515.102 1012.39 514.193 1013.52 514.193H1013.85C1014.79 514.193 1015.55 513.435 1015.55 512.5C1015.55 511.565 1014.79 510.807 1013.85 510.807H1012.67C1012.02 510.807 1011.49 510.277 1011.49 509.622C1011.49 508.968 1012.02 508.437 1012.67 508.437H1013.85C1014.79 508.437 1015.55 507.679 1015.55 506.744C1015.55 505.81 1014.79 505.052 1013.85 505.052H1012.67C1012.02 505.052 1011.49 504.521 1011.49 503.867C1011.49 503.212 1012.02 502.682 1012.67 502.682H1013.85C1014.79 502.682 1015.55 501.924 1015.55 500.989C1015.55 500.054 1014.79 499.296 1013.85 499.296H1012.67C1012.02 499.296 1011.49 498.765 1011.49 498.111C1011.49 497.457 1012.02 496.926 1012.67 496.926H1013.85C1014.79 496.926 1015.55 496.168 1015.55 495.233C1015.55 494.298 1014.79 493.54 1013.85 493.54H1013.52C1012.39 493.54 1011.49 492.631 1011.49 491.51V489.308C1011.49 488.467 1010.8 487.785 1009.96 487.785C1009.12 487.785 1008.44 487.103 1008.44 486.262V484.061C1008.44 482.004 1006.77 480.336 1004.72 480.336H1004.38C1002.13 480.336 1000.32 478.518 1000.32 476.275V465.438C1000.32 463.756 998.953 462.392 997.271 462.392C995.588 462.392 994.224 461.029 994.224 459.346V447.761C994.224 443.06 990.95 438.994 986.357 437.991L975.609 435.646C973.034 435.051 971.209 432.758 971.209 430.114V398.572C971.209 397.918 970.679 397.388 970.025 397.388C969.371 397.388 968.84 397.918 968.84 398.572V430.473C968.84 432.429 967.024 433.879 965.117 433.445C963.21 433.012 961.394 434.461 961.394 436.417V459.854C961.394 461.256 960.258 462.392 958.856 462.392C957.454 462.392 956.318 463.529 956.318 464.931V476.275C956.318 478.518 954.499 480.336 952.256 480.336H951.411C949.635 480.336 948.195 481.776 948.195 483.553V485.246C948.195 486.087 947.513 486.769 946.672 486.769C945.831 486.769 945.149 487.451 945.149 488.292V489.647C945.149 491.236 943.86 492.525 942.271 492.525H912.503C906.981 492.525 902.503 497.002 902.503 502.525V520.105C902.503 525.628 898.026 530.105 892.503 530.105H867.83C866.588 530.105 865.357 530.337 864.2 530.788L833.797 542.632C832.775 543.041 832.105 544.031 832.105 545.132V556.853C832.105 558.348 833.318 559.561 834.813 559.561H835.489C836.611 559.561 837.52 560.47 837.52 561.592C837.52 562.714 836.611 563.623 835.489 563.623H834.137C833.015 563.623 832.105 564.533 832.105 565.655C832.105 566.777 833.015 567.686 834.137 567.686H835.489C836.611 567.686 837.52 568.596 837.52 569.718C837.52 570.839 836.611 571.749 835.489 571.749H834.137C833.015 571.749 832.105 572.658 832.105 573.78C832.105 574.902 833.015 575.812 834.137 575.812H835.489C836.611 575.812 837.52 576.721 837.52 577.843C837.52 578.965 836.611 579.874 835.489 579.874H834.137C833.015 579.874 832.105 580.784 832.105 581.906C832.105 583.028 833.015 583.937 834.137 583.937H835.489C836.611 583.937 837.52 584.847 837.52 585.969C837.52 587.091 836.611 588 835.489 588H834.137C833.015 588 832.105 588.91 832.105 590.031C832.105 591.153 833.015 592.063 834.137 592.063H835.997C836.838 592.063 837.52 592.745 837.52 593.586C837.52 594.428 836.838 595.11 835.997 595.11H805.219C801.036 595.11 797.295 592.507 795.842 588.585L787.79 566.855C786.389 563.076 781.041 563.082 779.65 566.865C777.954 571.477 770.828 570.154 770.838 565.24C770.845 561.879 770.845 558.519 770.845 555.159C770.845 550.419 770.845 545.679 770.845 540.939C770.845 527.397 770.845 513.854 770.507 500.312C770.507 494.556 770.168 488.462 770.168 482.706C769.83 470.179 769.491 457.652 768.814 444.787C768.476 438.693 768.476 432.599 768.137 426.504C767.461 414.655 767.122 403.143 766.445 391.294C766.445 389.939 766.107 388.585 766.107 387.231C765.43 376.735 764.753 366.578 764.076 356.083C762.722 337.123 761.03 318.164 759.338 299.204C759.214 297.475 759.046 295.701 758.865 293.915C758.337 288.695 753.919 284.646 748.672 284.646H685.252C680.398 284.646 676.078 288.256 676.078 293.11C675.74 297.173 675.401 301.235 675.063 305.298C674.724 308.684 674.386 312.408 674.047 315.794C673.371 322.226 673.032 328.659 672.355 335.092C672.017 338.139 672.017 340.848 671.678 343.895C671.34 349.312 671.001 354.729 670.325 360.146C669.986 362.516 669.986 364.886 669.986 366.917C669.648 374.027 668.971 381.137 668.632 387.908C668.632 390.278 668.294 392.648 668.294 395.018C667.955 402.466 667.617 409.576 667.278 417.025C667.278 418.717 666.94 420.072 666.94 421.765C666.602 428.536 666.263 435.646 665.925 442.417C665.925 443.771 665.925 445.126 665.925 446.48C665.586 454.267 665.248 462.054 665.248 469.841C665.248 471.534 665.248 472.888 665.248 474.581C664.909 482.706 664.909 490.832 664.571 498.619V499.635C664.571 507.76 664.233 515.886 664.233 523.673C664.233 524.688 664.233 525.704 664.233 526.72C664.233 534.845 664.233 542.971 664.233 551.096C664.233 552.112 664.233 553.466 664.233 554.482C664.233 556.894 664.233 559.307 664.233 561.763C664.233 565.782 660.975 569.04 656.956 569.04C652.937 569.04 649.679 572.298 649.679 576.317V657.578C649.679 662.344 645.815 666.208 641.048 666.208H633.264C632.797 666.208 632.418 665.83 632.418 665.362C632.418 664.895 632.797 664.516 633.264 664.516H633.941C634.782 664.516 635.464 663.834 635.464 662.993V662.315C635.464 661.473 634.782 660.792 633.941 660.792C633.1 660.792 632.418 660.11 632.418 659.268V657.913C632.418 657.072 633.1 656.39 633.941 656.39C634.782 656.39 635.464 655.708 635.464 654.867V654.189C635.464 653.348 634.782 652.666 633.941 652.666C633.1 652.666 632.418 651.984 632.418 651.143V649.449C632.418 648.608 633.1 647.926 633.941 647.926C634.782 647.926 635.464 647.244 635.464 646.403V645.725C635.464 644.884 634.782 644.202 633.941 644.202C633.1 644.202 632.418 643.52 632.418 642.679V640.985C632.418 640.144 633.1 639.462 633.941 639.462C634.782 639.462 635.464 638.78 635.464 637.939V637.261C635.464 636.42 634.782 635.738 633.941 635.738C633.1 635.738 632.418 635.056 632.418 634.215V632.521C632.418 631.68 633.1 630.998 633.941 630.998C634.782 630.998 635.464 630.316 635.464 629.475V628.797C635.464 627.955 634.782 627.274 633.941 627.274C633.1 627.274 632.418 626.592 632.418 625.75V624.057C632.418 623.216 633.1 622.534 633.941 622.534C634.782 622.534 635.464 621.852 635.464 621.011V620.332C635.464 619.491 634.782 618.809 633.941 618.809C633.1 618.809 632.418 618.128 632.418 617.286V615.593C632.418 614.751 633.1 614.07 633.941 614.07C634.782 614.07 635.464 613.388 635.464 612.546V611.868C635.464 611.027 634.782 610.345 633.941 610.345C633.1 610.345 632.418 609.663 632.418 608.822V607.128C632.418 606.287 633.1 605.605 633.941 605.605C634.782 605.605 635.464 604.923 635.464 604.082V603.404C635.464 602.563 634.782 601.881 633.941 601.881C633.1 601.881 632.418 601.199 632.418 600.358V598.664C632.418 597.823 633.1 597.141 633.941 597.141C634.782 597.141 635.464 596.459 635.464 595.618V594.94C635.464 594.099 634.782 593.417 633.941 593.417C633.1 593.417 632.418 592.735 632.418 591.894V590.2C632.418 589.359 633.1 588.677 633.941 588.677C634.782 588.677 635.464 587.995 635.464 587.154V586.476C635.464 585.635 634.782 584.953 633.941 584.953C633.1 584.953 632.418 584.271 632.418 583.43V581.736C632.418 580.895 633.1 580.213 633.941 580.213C634.782 580.213 635.464 579.531 635.464 578.69V576.658C635.464 575.816 634.782 575.135 633.941 575.135C633.1 575.135 632.418 574.453 632.418 573.611V571.918C632.418 571.077 633.1 570.395 633.941 570.395C634.782 570.395 635.464 569.713 635.464 568.872V568.194C635.464 567.352 634.782 566.67 633.941 566.67C633.1 566.67 632.418 565.989 632.418 565.147V563.115C632.418 562.274 633.1 561.592 633.941 561.592C634.782 561.592 635.464 560.91 635.464 560.069V559.391C635.464 558.55 634.782 557.868 633.941 557.868C633.1 557.868 632.418 557.186 632.418 556.345V554.651C632.418 553.81 633.1 553.128 633.941 553.128C634.782 553.128 635.464 552.446 635.464 551.605V550.927C635.464 550.086 634.782 549.404 633.941 549.404C633.1 549.404 632.418 548.722 632.418 547.881V546.187C632.418 545.346 633.1 544.664 633.941 544.664C634.782 544.664 635.464 543.982 635.464 543.141V542.463C635.464 541.621 634.782 540.939 633.941 540.939C633.1 540.939 632.418 540.258 632.418 539.416V537.723C632.418 536.882 633.1 536.2 633.941 536.2C634.782 536.2 635.464 535.518 635.464 534.677V533.998C635.464 533.157 634.782 532.475 633.941 532.475C633.1 532.475 632.418 531.793 632.418 530.952V529.259C632.418 528.417 633.1 527.735 633.941 527.735C634.782 527.735 635.464 527.054 635.464 526.212V525.534C635.464 524.693 634.782 524.011 633.941 524.011C633.1 524.011 632.418 523.329 632.418 522.488V520.794C632.418 519.953 633.1 519.271 633.941 519.271C634.782 519.271 635.464 518.589 635.464 517.748V517.07C635.464 516.229 634.782 515.547 633.941 515.547C633.1 515.547 632.418 514.865 632.418 514.024V512.33C632.418 511.489 633.1 510.807 633.941 510.807C634.782 510.807 635.464 510.125 635.464 509.284V508.606C635.464 507.765 634.782 507.083 633.941 507.083C633.1 507.083 632.418 506.401 632.418 505.56V503.866C632.418 503.025 633.1 502.343 633.941 502.343C634.782 502.343 635.464 501.661 635.464 500.82V498.788C635.464 497.947 634.782 497.265 633.941 497.265C633.1 497.265 632.418 496.583 632.418 495.742V494.048C632.418 493.207 633.1 492.525 633.941 492.525C634.782 492.525 635.464 491.843 635.464 491.002V490.324C635.464 489.482 634.782 488.8 633.941 488.8C633.1 488.8 632.418 488.119 632.418 487.277V485.584C632.418 484.742 633.1 484.061 633.941 484.061C634.782 484.061 635.464 483.379 635.464 482.537V481.859C635.464 481.018 634.782 480.336 633.941 480.336C633.1 480.336 632.418 479.654 632.418 478.813V477.12C632.418 476.278 633.1 475.596 633.941 475.596C634.782 475.596 635.464 474.915 635.464 474.073V473.395C635.464 472.554 634.782 471.872 633.941 471.872C633.1 471.872 632.418 471.19 632.418 470.349V464.931C632.418 464.09 633.1 463.408 633.941 463.408C634.782 463.408 635.464 462.726 635.464 461.885V460.869C635.464 459.466 634.327 458.33 632.925 458.33H628.019C626.71 458.33 625.649 457.269 625.649 455.96V455.402C625.649 454.401 626.46 453.59 627.461 453.59C628.951 453.59 629.805 451.893 628.917 450.697L616.776 434.337C615.331 432.392 613.051 431.244 610.628 431.244H610.421C606.307 431.244 602.972 427.91 602.972 423.796C602.972 423.048 602.295 422.174 602.295 421.426V401.958C602.295 401.304 601.765 400.774 601.111 400.774C600.457 400.774 599.926 401.304 599.926 401.958V421.479C599.926 422.198 599.25 423.077 599.25 423.796C599.25 427.91 595.915 431.244 591.801 431.244H591.594C589.171 431.244 586.891 432.392 585.446 434.338L572.634 451.601C572.024 452.423 572.611 453.59 573.635 453.59C574.323 453.59 574.881 454.148 574.881 454.836V455.96C574.881 457.269 573.82 458.33 572.511 458.33H567.605C566.203 458.33 565.066 459.466 565.066 460.869V461.547C565.066 462.575 565.899 463.408 566.927 463.408C567.955 463.408 568.789 464.242 568.789 465.27V470.011C568.789 471.039 567.955 471.872 566.927 471.872C565.899 471.872 565.066 472.706 565.066 473.734C565.066 474.762 565.899 475.596 566.927 475.596C567.955 475.596 568.789 476.43 568.789 477.458V478.475C568.789 479.503 567.955 480.336 566.927 480.336C565.899 480.336 565.066 481.17 565.066 482.198C565.066 483.227 565.899 484.061 566.927 484.061C567.955 484.061 568.789 484.894 568.789 485.922V486.939C568.789 487.967 567.955 488.8 566.927 488.8C565.899 488.8 565.066 489.634 565.066 490.663C565.066 491.691 565.899 492.525 566.927 492.525C567.955 492.525 568.789 493.358 568.789 494.386V495.403C568.789 496.431 567.955 497.265 566.927 497.265C565.899 497.265 565.066 498.099 565.066 499.127C565.066 500.155 565.899 500.989 566.927 500.989C567.955 500.989 568.789 501.822 568.789 502.85V503.867C568.789 504.895 567.955 505.729 566.927 505.729C565.899 505.729 565.066 506.563 565.066 507.591C565.066 508.619 565.899 509.453 566.927 509.453C567.955 509.453 568.789 510.286 568.789 511.314V512.331C568.789 513.359 567.955 514.193 566.927 514.193C565.899 514.193 565.066 515.027 565.066 516.055C565.066 517.083 565.899 517.917 566.927 517.917C567.955 517.917 568.789 518.75 568.789 519.779V520.795C568.789 521.824 567.955 522.657 566.927 522.657C565.899 522.657 565.066 523.491 565.066 524.519C565.066 525.547 565.899 526.381 566.927 526.381C567.955 526.381 568.789 527.215 568.789 528.243V529.26C568.789 530.288 567.955 531.121 566.927 531.121C565.899 531.121 565.066 531.955 565.066 532.983C565.066 534.011 565.899 534.845 566.927 534.845C567.955 534.845 568.789 535.679 568.789 536.707V537.724C568.789 538.752 567.955 539.585 566.927 539.585C565.899 539.585 565.066 540.419 565.066 541.447C565.066 542.475 565.899 543.309 566.927 543.309C567.955 543.309 568.789 544.143 568.789 545.171V546.188C568.789 547.216 567.955 548.049 566.927 548.049C565.899 548.049 565.066 548.883 565.066 549.911C565.066 550.94 565.899 551.774 566.927 551.774C567.955 551.774 568.789 552.607 568.789 553.635V554.652C568.789 555.68 567.955 556.513 566.927 556.513C565.899 556.513 565.066 557.348 565.066 558.376C565.066 559.404 565.899 560.238 566.927 560.238C567.955 560.238 568.789 561.071 568.789 562.099V563.116C568.789 564.144 567.955 564.978 566.927 564.978C565.899 564.978 565.066 565.812 565.066 566.84C565.066 567.868 565.899 568.702 566.927 568.702C567.955 568.702 568.789 569.535 568.789 570.563V571.58C568.789 572.608 567.955 573.442 566.927 573.442C565.899 573.442 565.066 574.276 565.066 575.304C565.066 576.332 565.899 577.166 566.927 577.166C567.955 577.166 568.789 577.999 568.789 579.027V580.044C568.789 581.072 567.955 581.906 566.927 581.906C565.899 581.906 565.066 582.74 565.066 583.768C565.066 584.796 565.899 585.63 566.927 585.63H568.281C568.561 585.63 568.789 585.857 568.789 586.138C568.789 586.418 568.561 586.646 568.281 586.646H550.514C548.083 586.646 546.112 584.675 546.112 582.244V578.52V573.78V570.056V565.316V561.592V556.852V553.128V548.388V544.664V539.924V536.2V531.46V527.735V522.996V519.271V514.531V510.807V506.067V502.343V497.603V493.879V489.139V485.415V481.013V477.289V472.549V468.825V464.085V460.361V455.621V451.897V447.496V443.771V439.031V435.307V430.567V426.843V422.103V418.379V413.639V409.915V405.175V401.451V396.711V392.987V388.247V384.522V379.783V376.058V371.318V367.594V362.854V359.13V354.39V350.666V345.926L545.939 338.635C545.839 334.468 543.165 330.799 539.228 329.429L529.149 325.922C525.858 324.777 522.421 327.22 522.421 330.705V332.251C522.421 334.194 520.846 335.769 518.903 335.769C516.932 335.769 515.346 334.15 515.385 332.18L515.829 310.22C515.923 305.558 512.782 301.449 508.257 300.317L486.87 294.969C480.861 293.466 474.945 297.732 474.473 303.908L471.314 345.249L470.976 349.989L470.637 353.713L470.299 358.453L469.96 362.177L469.622 366.917L469.283 370.641L468.945 375.381L468.607 379.105L468.268 383.845L467.93 387.57L467.591 392.309L467.253 396.034L466.914 400.774L466.576 404.498L466.237 409.238L465.899 412.962L465.56 417.702L465.222 421.426L464.884 426.166L464.545 429.89L464.207 434.63L463.868 438.354L463.849 438.618C463.646 441.465 462.235 444.09 459.973 445.831L458.228 447.173C456.001 448.887 454.607 451.465 454.391 454.267L454.053 457.991L453.715 462.731L453.376 466.455L453.038 471.195L452.699 474.919L452.361 479.659L452.022 483.383L451.684 487.785C451.684 488.72 450.926 489.478 449.991 489.478H422.085C416.562 489.478 412.085 493.955 412.085 499.478V538.063C412.085 540.961 409.736 543.309 406.839 543.309C403.942 543.309 401.593 545.658 401.593 548.555V652.668C401.593 656.594 398.411 659.776 394.485 659.776C390.56 659.776 387.378 656.594 387.378 652.668V236.569C387.378 235.073 386.166 233.861 384.67 233.861C383.175 233.861 381.963 232.649 381.963 231.153V194.092C381.963 188.569 377.485 184.092 371.963 184.092H314.457C308.934 184.092 304.457 188.569 304.457 194.092V231.492C304.457 232.987 303.245 234.2 301.749 234.2C300.254 234.2 299.042 235.412 299.042 236.907V417.196C299.042 419.906 296.844 422.103 294.134 422.103H290.242C289.681 422.103 289.226 422.558 289.226 423.119V423.458C289.226 423.832 288.923 424.135 288.549 424.135C288.176 424.135 287.873 424.438 287.873 424.811V428.536C287.873 428.91 288.176 429.213 288.549 429.213C288.923 429.213 289.226 429.516 289.226 429.89V430.229C289.226 430.603 288.923 430.906 288.549 430.906C288.176 430.906 287.873 431.209 287.873 431.583V435.307C287.873 435.681 288.176 435.984 288.549 435.984C288.923 435.984 289.226 436.287 289.226 436.661V437C289.226 437.374 288.923 437.677 288.549 437.677C288.176 437.677 287.873 437.98 287.873 438.354V442.079C287.873 442.453 288.176 442.756 288.549 442.756C288.923 442.756 289.226 443.059 289.226 443.432V443.772C289.226 444.145 288.923 444.448 288.549 444.448C288.176 444.448 287.873 444.751 287.873 445.125V448.85C287.873 449.224 288.176 449.527 288.549 449.527C288.923 449.527 289.226 449.83 289.226 450.204V450.543C289.226 450.917 288.923 451.22 288.549 451.22C288.176 451.22 287.873 451.523 287.873 451.897V455.621C287.873 455.995 288.176 456.298 288.549 456.298C288.923 456.298 289.226 456.601 289.226 456.975V457.314C289.226 457.688 288.923 457.991 288.549 457.991C288.176 457.991 287.873 458.294 287.873 458.668V462.393C287.873 462.766 288.176 463.07 288.549 463.07C288.923 463.07 289.226 463.373 289.226 463.746V464.085C289.226 464.459 288.923 464.762 288.549 464.762C288.176 464.762 287.873 465.065 287.873 465.439V469.164C287.873 469.538 288.176 469.841 288.549 469.841C288.923 469.841 289.226 470.144 289.226 470.518V470.857C289.226 471.231 288.923 471.534 288.549 471.534C288.176 471.534 287.873 471.837 287.873 472.211V475.935C287.873 476.309 288.176 476.612 288.549 476.612C288.923 476.612 289.226 476.915 289.226 477.289V477.628C289.226 478.002 288.923 478.305 288.549 478.305C288.176 478.305 287.873 478.608 287.873 478.982V482.707C287.873 483.08 288.176 483.383 288.549 483.383C288.923 483.383 289.226 483.686 289.226 484.06V484.399C289.226 484.773 288.923 485.076 288.549 485.076C288.176 485.076 287.873 485.379 287.873 485.753V489.478C287.873 489.852 288.176 490.155 288.549 490.155C288.923 490.155 289.226 490.458 289.226 490.832V491.171C289.226 491.545 288.923 491.848 288.549 491.848C288.176 491.848 287.873 492.151 287.873 492.524V496.249C287.873 496.623 288.176 496.926 288.549 496.926C288.923 496.926 289.226 497.229 289.226 497.603V497.942C289.226 498.316 288.923 498.619 288.549 498.619C288.176 498.619 287.873 498.922 287.873 499.296V503.02C287.873 503.394 288.176 503.697 288.549 503.697C288.923 503.697 289.226 504 289.226 504.374V504.713C289.226 505.087 288.923 505.39 288.549 505.39C288.176 505.39 287.873 505.693 287.873 506.067V509.792C287.873 510.166 288.176 510.469 288.549 510.469C288.923 510.469 289.226 510.772 289.226 511.146V511.485C289.226 511.858 288.923 512.161 288.549 512.161C288.176 512.161 287.873 512.465 287.873 512.838V516.563C287.873 516.937 288.176 517.24 288.549 517.24C288.923 517.24 289.226 517.543 289.226 517.917V518.256C289.226 518.63 288.923 518.933 288.549 518.933C288.176 518.933 287.873 519.236 287.873 519.61V523.334C287.873 523.708 288.176 524.011 288.549 524.011C288.923 524.011 289.226 524.314 289.226 524.688V531.798C289.226 532.172 288.923 532.475 288.549 532.475C288.176 532.475 287.873 532.778 287.873 533.152V536.877C287.873 537.251 288.176 537.554 288.549 537.554C288.923 537.554 289.226 537.857 289.226 538.231V538.57C289.226 538.944 288.923 539.247 288.549 539.247C288.176 539.247 287.873 539.55 287.873 539.924V540.77C287.873 541.612 287.19 542.294 286.349 542.294H275.196C269.673 542.294 265.196 537.817 265.196 532.294V440.906C265.196 435.383 260.719 430.906 255.196 430.906H215.628C210.106 430.906 205.628 435.383 205.628 440.906V494.051C205.628 498.818 201.764 502.682 196.998 502.682H190.399C189.277 502.682 188.367 501.772 188.367 500.65C188.367 499.528 187.458 498.619 186.336 498.619H184.813C182.851 498.619 181.26 497.028 181.26 495.065V367.933V224.042C181.26 222.546 180.047 221.334 178.552 221.334C177.057 221.334 175.844 220.122 175.844 218.626V145C175.844 139.477 171.367 135 165.844 135H92.0929C86.5701 135 82.0929 139.477 82.0929 145V218.627C82.0929 220.122 80.8806 221.334 79.3853 221.334C77.89 221.334 76.6777 222.546 76.6777 224.042V582.247C76.6777 585.798 73.7987 588.677 70.2471 588.677C66.6956 588.677 63.8165 585.798 63.8165 582.247V453.771C63.8165 448.248 59.3394 443.771 53.8165 443.771H51.1401C45.6173 443.771 41.1401 439.294 41.1401 433.771V383.167C41.1401 381.111 39.4733 379.444 37.4172 379.444C35.3611 379.444 33.6942 377.777 33.6942 375.721V360.327C33.6942 354.805 29.217 350.327 23.6942 350.327H-61.9032C-67.426 350.327 -71.9032 354.805 -71.9032 360.327V375.721C-71.9032 377.777 -73.5701 379.444 -75.6262 379.444C-77.6823 379.444 -79.3491 381.111 -79.3491 383.167V603.392C-79.3491 608.915 -83.8263 613.392 -89.3491 613.392H-93.7178C-99.2406 613.392 -103.718 608.915 -103.718 603.392V472.054C-103.718 466.531 -108.195 462.054 -113.718 462.054H-183.408C-188.931 462.054 -193.408 466.531 -193.408 472.054V547.714C-193.408 553.135 -197.802 557.529 -203.223 557.529C-208.644 557.529 -213.038 561.924 -213.038 567.344V644.542C-213.038 647.72 -215.614 650.296 -218.792 650.296C-221.97 650.296 -224.546 647.72 -224.546 644.542V382.83V378.427C-224.546 377.119 -225.606 376.058 -226.915 376.058H-228.268C-228.829 376.058 -229.284 375.604 -229.284 375.043C-229.284 374.482 -228.829 374.027 -228.268 374.027H-226.915C-225.606 374.027 -224.546 372.966 -224.546 371.658V369.625C-224.546 368.316 -225.606 367.256 -226.915 367.256H-228.268C-228.829 367.256 -229.284 366.801 -229.284 366.24C-229.284 365.679 -228.829 365.224 -228.268 365.224H-226.915C-225.606 365.224 -224.546 364.164 -224.546 362.855V360.822C-224.546 359.514 -225.606 358.453 -226.915 358.453H-228.268C-228.829 358.453 -229.284 357.998 -229.284 357.437C-229.284 356.876 -228.829 356.422 -228.268 356.422H-226.915C-225.606 356.422 -224.546 355.361 -224.546 354.052V352.019C-224.546 350.711 -225.606 349.65 -226.915 349.65H-228.607C-228.981 349.65 -229.284 349.347 -229.284 348.973C-229.284 348.599 -228.981 348.296 -228.607 348.296H-226.746C-225.344 348.296 -224.207 347.159 -224.207 345.758V344.063C-224.207 342.661 -225.344 341.525 -226.746 341.525H-228.268C-228.829 341.525 -229.284 341.07 -229.284 340.509C-229.284 339.948 -228.829 339.493 -228.268 339.493H-226.746C-225.344 339.493 -224.207 338.357 -224.207 336.955V335.26C-224.207 333.858 -225.344 332.722 -226.746 332.722H-228.268C-228.829 332.722 -229.284 332.267 -229.284 331.706C-229.284 331.145 -228.829 330.691 -228.268 330.691H-226.746C-225.344 330.691 -224.207 329.554 -224.207 328.152V326.458C-224.207 325.056 -225.344 323.919 -226.746 323.919H-228.268C-228.829 323.919 -229.284 323.465 -229.284 322.904C-229.284 322.343 -228.829 321.888 -228.268 321.888H-226.746C-225.344 321.888 -224.207 320.751 -224.207 319.349V301.407C-224.207 298.12 -225.858 295.081 -228.324 292.908C-238.463 283.978 -252.68 264.9 -252.976 238.601V237.924V237.076C-252.976 235.488 -254.264 234.2 -255.853 234.2H-256.867C-257.896 234.2 -258.729 235.033 -258.729 236.062C-258.729 237.09 -259.563 237.924 -260.591 237.924H-262.791C-265.034 237.924 -266.852 236.105 -266.852 233.862V180.536C-266.852 179.695 -267.534 179.013 -268.375 179.013C-269.216 179.013 -269.898 179.695 -269.898 180.536V237.416C-269.898 237.884 -270.277 238.262 -270.745 238.262C-271.212 238.262 -271.591 237.884 -271.591 237.416V236.4C-271.591 235.372 -272.424 234.538 -273.453 234.538H-275.821C-276.849 234.538 -277.683 235.372 -277.683 236.4C-277.683 237.429 -278.516 238.262 -279.545 238.262H-286.651C-287.68 238.262 -288.513 237.429 -288.513 236.4C-288.513 235.372 -289.347 234.538 -290.375 234.538H-291.559C-293.242 234.538 -294.605 235.902 -294.605 237.584V238.262C-294.605 264.941 -301.965 284.257 -310.531 293.354C-312.823 295.788 -314.574 298.842 -314.574 302.185V315.624C-314.574 315.718 -314.498 315.794 -314.405 315.794C-314.311 315.794 -314.236 315.87 -314.236 315.963V319.519C-314.236 321.201 -312.872 322.565 -311.19 322.565H-309.159C-308.598 322.565 -308.143 323.02 -308.143 323.581C-308.143 324.142 -308.598 324.596 -309.159 324.596H-311.19C-312.872 324.596 -314.236 325.96 -314.236 327.643V328.322C-314.236 330.004 -312.872 331.368 -311.19 331.368H-309.159C-308.598 331.368 -308.143 331.822 -308.143 332.383C-308.143 332.944 -308.598 333.399 -309.159 333.399H-311.359C-313.135 333.399 -314.574 334.839 -314.574 336.614V336.955C-314.574 338.731 -313.135 340.17 -311.359 340.17H-308.821C-308.447 340.17 -308.143 340.474 -308.143 340.848C-308.143 341.222 -308.447 341.525 -308.821 341.525H-311.359C-313.135 341.525 -314.574 342.964 -314.574 344.74V345.081C-314.574 346.856 -313.135 348.296 -311.359 348.296H-309.159C-308.598 348.296 -308.143 348.751 -308.143 349.312C-308.143 349.873 -308.598 350.327 -309.159 350.327H-311.359C-313.135 350.327 -314.574 351.767 -314.574 353.543V353.883C-314.574 355.659 -313.135 357.099 -311.359 357.099H-309.159C-308.598 357.099 -308.143 357.553 -308.143 358.114C-308.143 358.675 -308.598 359.13 -309.159 359.13H-311.359C-313.135 359.13 -314.574 360.57 -314.574 362.345V362.686C-314.574 364.462 -313.135 365.901 -311.359 365.901H-309.159C-308.598 365.901 -308.143 366.356 -308.143 366.917C-308.143 367.478 -308.598 367.933 -309.159 367.933H-311.359C-313.135 367.933 -314.574 369.372 -314.574 371.148V371.489C-314.574 373.264 -313.135 374.704 -311.359 374.704H-309.159C-308.598 374.704 -308.143 375.159 -308.143 375.72C-308.143 376.281 -308.598 376.735 -309.159 376.735H-311.528C-313.397 376.735 -314.913 378.251 -314.913 380.12V513.519C-314.913 518.753 -319.155 522.996 -324.389 522.996C-329.623 522.996 -333.866 527.238 -333.866 532.472V589.864C-333.866 592.761 -336.215 595.11 -339.112 595.11C-342.009 595.11 -344.358 597.459 -344.358 600.356V653.193C-344.358 655.345 -346.787 656.474 -348.938 656.393C-349.069 656.388 -349.161 656.381 -349.291 656.362C-349.413 656.345 -349.536 656.328 -349.66 656.31C-353.607 655.758 -356.542 652.414 -356.542 648.429V526.134C-356.542 522.169 -358.885 518.579 -362.514 516.982L-364.694 516.022C-364.898 515.932 -365.119 515.886 -365.342 515.886H-365.849C-367.251 515.886 -368.388 514.749 -368.388 513.346V511.992C-368.388 511.338 -368.919 510.807 -369.573 510.807C-370.227 510.807 -370.757 511.338 -370.757 511.992C-370.757 512.646 -371.288 513.177 -371.942 513.177H-372.086C-372.66 513.177 -373.127 513.643 -373.127 514.218C-373.127 514.773 -373.562 515.23 -374.116 515.258L-377.979 515.451C-379.022 515.503 -379.896 514.672 -379.896 513.628C-379.896 512.937 -380.286 512.305 -380.904 511.995L-381.819 511.538C-382.334 511.281 -382.904 511.155 -383.48 511.172L-403.279 511.763C-404.394 511.796 -405.28 512.709 -405.28 513.824C-405.28 514.963 -406.203 515.886 -407.341 515.886H-407.649C-408.957 515.886 -410.018 516.946 -410.018 518.255V540.758C-410.018 546.281 -414.495 550.758 -420.018 550.758H-437.586C-443.109 550.758 -447.586 546.281 -447.586 540.758V382.49C-447.586 380.06 -449.556 378.09 -451.986 378.09C-454.416 378.09 -456.386 376.12 -456.386 373.69V344.415C-456.386 338.892 -460.863 334.415 -466.386 334.415H-481.43C-484.608 334.415 -487.185 331.838 -487.185 328.659C-487.185 325.48 -489.762 322.904 -492.941 322.904H-496.828C-501.97 322.904 -506.139 318.735 -506.139 313.593C-506.139 308.451 -510.307 304.283 -515.449 304.283H-572.968C-578.49 304.283 -582.968 308.76 -582.968 314.283V324.415C-582.968 329.938 -587.445 334.415 -592.968 334.415H-611.551C-617.074 334.415 -621.551 338.892 -621.551 344.415V636.233C-621.551 641.756 -626.028 646.233 -631.551 646.233H-632.535C-638.058 646.233 -642.535 650.71 -642.535 656.233V665.873C-642.535 671.294 -646.93 675.688 -652.35 675.688C-657.771 675.688 -662.166 671.294 -662.166 665.873V591.906C-662.166 586.383 -666.643 581.906 -672.166 581.906H-682.626C-688.149 581.906 -692.626 577.429 -692.626 571.906V551.475C-692.626 551.243 -692.757 551.031 -692.965 550.927C-693.172 550.823 -693.303 550.611 -693.303 550.379V546.834C-693.303 545.427 -693.77 544.06 -694.632 542.947L-699.334 536.871C-700.69 535.119 -701.426 532.966 -701.426 530.75V524.77C-701.426 523.851 -701.791 522.969 -702.441 522.318C-703.092 521.668 -703.457 520.786 -703.457 519.867V505.221C-703.457 504.94 -703.684 504.713 -703.965 504.713C-704.245 504.713 -704.472 504.94 -704.472 505.221V520.106C-704.472 520.872 -704.777 521.607 -705.318 522.149C-705.86 522.691 -706.164 523.426 -706.164 524.192V531.694C-706.164 533.745 -706.795 535.747 -707.971 537.427L-712.193 543.46C-712.895 544.464 -713.272 545.659 -713.272 546.885V548.86C-713.272 549.623 -713.653 550.335 -714.287 550.758C-714.922 551.181 -715.303 551.893 -715.303 552.655V553.524C-715.303 554.749 -715.945 555.883 -716.995 556.513L-717.412 556.764C-718.203 557.239 -718.687 558.094 -718.687 559.017C-718.687 559.978 -719.212 560.863 -720.056 561.323L-720.549 561.592C-721.696 562.218 -722.41 563.421 -722.41 564.728V595.757C-722.41 599.586 -725.706 602.583 -729.518 602.22C-732.882 602.22 -735.61 599.492 -735.61 596.128V534.35C-735.61 528.827 -740.087 524.35 -745.61 524.35H-767.24C-772.762 524.35 -777.24 528.827 -777.24 534.35V562.087C-777.24 567.61 -781.717 572.087 -787.24 572.087H-793.639C-799.162 572.087 -803.639 576.565 -803.639 582.087V602.39C-803.639 604.166 -805.079 605.605 -806.854 605.605C-808.63 605.605 -810.07 607.045 -810.07 608.821V646.742C-810.07 648.144 -811.206 649.28 -812.608 649.28C-814.01 649.28 -815.146 648.144 -815.146 646.742V630.658C-815.146 628.789 -816.662 627.274 -818.531 627.274C-820.4 627.274 -821.915 625.758 -821.915 623.889V452.078C-821.915 446.556 -826.393 442.078 -831.915 442.078H-879.791C-922.098 442.078 -956.281 471.872 -956.281 514.193V538.049C-956.281 543.572 -960.759 548.049 -966.281 548.049H-970.158C-982.342 548.049 -992.157 569.04 -992.157 580.552V620.321C-992.157 625.844 -996.635 630.321 -1002.16 630.321H-1018.03C-1023.56 630.321 -1028.03 625.844 -1028.03 620.321V582.765C-1028.03 577.242 -1032.51 572.765 -1038.03 572.765H-1042.06C-1047.59 572.765 -1052.06 577.242 -1052.06 582.765V669.765C-1052.06 672.663 -1054.41 675.011 -1057.31 675.011C-1060.21 675.011 -1062.56 672.663 -1062.56 669.765V621.009C-1062.56 619.42 -1063.84 618.132 -1065.43 618.132C-1067.02 618.132 -1068.31 616.844 -1068.31 615.255V582.765C-1068.31 577.242 -1072.79 572.765 -1078.31 572.765H-1079.63C-1085.15 572.765 -1089.63 568.287 -1089.63 562.765V527.24C-1089.63 521.717 -1094.11 517.24 -1099.63 517.24H-1126C-1131.52 517.24 -1136 521.717 -1136 527.24V729C-1136 734.523 -1131.52 739 -1126 739H1344C1349.52 739 1354 734.523 1354 729V351.525C1354 346.002 1349.52 341.525 1344 341.525H1325.57ZM945.149 533.322C945.149 533.976 944.618 534.507 943.964 534.507H941.764C941.577 534.507 941.426 534.355 941.426 534.168V533.322C941.426 532.667 941.956 532.137 942.611 532.137H943.964C944.618 532.137 945.149 532.667 945.149 533.322ZM945.149 527.566C945.149 528.221 944.618 528.751 943.964 528.751H942.611C941.956 528.751 941.426 528.221 941.426 527.566C941.426 526.912 941.956 526.381 942.611 526.381H943.964C944.618 526.381 945.149 526.912 945.149 527.566ZM945.149 521.472C945.149 522.126 944.618 522.657 943.964 522.657H942.611C941.956 522.657 941.426 522.126 941.426 521.472C941.426 520.818 941.956 520.287 942.611 520.287H943.964C944.618 520.287 945.149 520.818 945.149 521.472ZM945.149 515.378C945.149 516.032 944.618 516.563 943.964 516.563H942.611C941.956 516.563 941.426 516.032 941.426 515.378C941.426 514.723 941.956 514.193 942.611 514.193H943.964C944.618 514.193 945.149 514.723 945.149 515.378ZM945.149 509.284C945.149 509.938 944.618 510.469 943.964 510.469H942.611C941.956 510.469 941.426 509.938 941.426 509.284C941.426 508.629 941.956 508.099 942.611 508.099H943.964C944.618 508.099 945.149 508.629 945.149 509.284ZM945.149 503.189C945.149 503.844 944.618 504.374 943.964 504.374H942.611C941.956 504.374 941.426 503.844 941.426 503.189C941.426 502.535 941.956 502.005 942.611 502.005H943.964C944.618 502.005 945.149 502.535 945.149 503.189ZM945.149 497.434C945.149 498.088 944.618 498.619 943.964 498.619H942.611C941.956 498.619 941.426 498.088 941.426 497.434C941.426 496.779 941.956 496.249 942.611 496.249H943.964C944.618 496.249 945.149 496.779 945.149 497.434Z" fill="url(#paint1_linear)"/>
<path d="M1098.89 492.501C1040.11 492.501 992.564 593.395 992.564 717.746H1205.33C1205.33 593.269 1157.66 492.501 1098.89 492.501Z" fill="url(#paint2_linear)"/>
<path d="M1098.89 492.501C1040.11 492.501 992.564 593.395 992.564 717.746H1205.33C1205.33 593.269 1157.66 492.501 1098.89 492.501Z" fill="url(#paint3_linear)"/>
<mask id="mask1" mask-type="alpha" maskUnits="userSpaceOnUse" x="992" y="492" width="214" height="226">
<path d="M1098.89 492.501C1040.11 492.501 992.564 593.395 992.564 717.746H1205.33C1205.33 593.269 1157.66 492.501 1098.89 492.501Z" fill="url(#paint4_linear)"/>
</mask>
<g mask="url(#mask1)">
<path opacity="0.2" d="M1009.25 512.899C1042.94 497.553 1110.97 472.451 1113.6 494.812C1116.89 522.764 922.149 642.793 988.705 617.307C1055.26 591.822 1112.78 521.942 1127.57 546.605C1142.36 571.269 997.743 673.211 1046.22 668.279C1094.7 663.346 1154.68 549.894 1173.58 567.981C1192.48 586.067 1049.51 711.851 1081.56 722.538C1113.6 733.226 1201.52 554.827 1236.85 550.716" stroke="url(#paint5_linear)" stroke-width="2"/>
</g>
<path opacity="0.3" d="M1191.54 717.746H1205.33C1205.33 593.269 1157.66 492.501 1098.89 492.501C1096.57 492.501 1094.27 492.658 1091.99 492.966C1147.55 500.484 1191.54 598.176 1191.54 717.746Z" fill="#C9D983"/>
<path d="M1216.82 553.573C1173.82 553.573 1139.01 627.406 1139.01 718.403H1294.64C1294.52 627.406 1259.71 553.573 1216.82 553.573Z" fill="url(#paint6_linear)"/>
<mask id="mask2" mask-type="alpha" maskUnits="userSpaceOnUse" x="1139" y="553" width="156" height="166">
<path d="M1216.82 553.573C1173.82 553.573 1139.01 627.406 1139.01 718.403H1294.64C1294.52 627.406 1259.71 553.573 1216.82 553.573Z" fill="url(#paint7_linear)"/>
</mask>
<g mask="url(#mask2)">
<path opacity="0.2" d="M1192.37 516.142C1161.84 565.873 1112.92 655.132 1161.51 614.321C1222.25 563.306 1280.1 579.669 1256 614.321C1231.89 648.972 1161.51 630.684 1168.26 667.26C1173.66 696.521 1252.14 653.143 1290.7 627.796" stroke="url(#paint8_linear)" stroke-width="2"/>
</g>
<path opacity="0.3" fill-rule="evenodd" clip-rule="evenodd" d="M1278.23 718.403H1294.64C1294.52 627.406 1259.71 553.573 1216.82 553.573C1214.05 553.573 1211.31 553.881 1208.6 554.481C1247.64 563.178 1278.11 633.281 1278.23 718.403Z" fill="#C9D983"/>
<path d="M910.478 473.457C842.311 473.457 787.02 582.247 787.02 716.433H1033.94C1033.81 582.247 978.645 473.457 910.478 473.457Z" fill="url(#paint9_linear)"/>
<mask id="mask3" mask-type="alpha" maskUnits="userSpaceOnUse" x="787" y="473" width="247" height="244">
<path d="M910.478 473.457C842.311 473.457 787.02 582.247 787.02 716.433H1033.94C1033.81 582.247 978.645 473.457 910.478 473.457Z" fill="url(#paint10_linear)"/>
</mask>
<g mask="url(#mask3)">
<path opacity="0.2" d="M797.526 522.485C810.538 507.129 839.768 479.768 852.594 493.169C868.627 509.921 834.471 567.853 856.777 574.833C879.083 581.813 910.45 472.23 937.636 482.7C964.821 493.169 820.529 662.779 870.718 669.061C920.906 675.343 943.909 523.881 965.518 534.35C987.127 544.82 916.724 626.484 941.121 650.215C965.518 673.947 978.066 562.27 997.583 574.833C1017.1 587.397 1003.16 650.215 984.339 692.792" stroke="url(#paint11_linear)" stroke-width="2"/>
</g>
<path opacity="0.2" d="M1006.35 716.433H1033.94C1033.81 582.247 978.645 473.457 910.478 473.457C905.816 473.457 901.214 473.966 896.687 474.957C958.352 488.456 1006.24 591.423 1006.35 716.433Z" fill="#C9D983"/>
<path d="M1086.41 567.526H1084.12V715.23H1086.41V567.526Z" fill="#0C5E59"/>
<path d="M1101.91 558.174C1097.01 558.174 1092.45 561.709 1089.26 564.903C1091.42 561.823 1094.39 558.06 1096.67 557.375C1100.66 556.121 1103.85 556.691 1103.85 556.691C1103.85 556.691 1100.2 551.558 1094.73 553.954C1092.33 554.98 1090.28 558.402 1088.8 561.709C1089.6 558.63 1090.28 554.98 1089.71 551.672C1088.34 543.232 1079 542.548 1079 542.548C1079 542.548 1084.24 549.848 1085.15 558.402C1085.27 559.542 1085.38 560.683 1085.49 561.709C1084.7 556.805 1082.76 550.874 1077.97 547.68C1066.11 539.81 1058.7 553.611 1058.7 553.611C1058.7 553.611 1065.43 549.391 1074.32 553.84C1081.39 557.375 1084.35 564.903 1085.27 567.983C1084.13 565.701 1079.22 557.033 1071.47 555.778C1059.73 553.84 1056.76 568.667 1056.76 568.667C1056.76 568.667 1063.49 563.306 1071.81 563.648C1078.31 563.991 1082.87 566.614 1085.15 568.667C1083.9 568.325 1081.28 567.754 1078.08 567.64C1067.71 567.526 1065.54 581.441 1065.54 581.441L1085.27 569.351C1084.35 570.948 1082.64 574.37 1081.73 576.651C1080.36 579.845 1081.28 587.03 1081.28 587.03C1081.28 587.03 1084.47 581.555 1085.38 578.02C1086.29 574.598 1086.06 571.062 1085.95 569.351L1099.29 583.837C1099.29 583.837 1102.59 575.054 1092.45 570.834C1091.08 570.264 1089.94 569.807 1089.03 569.465C1091.42 569.807 1094.39 570.834 1097.46 572.773C1103.28 576.537 1107.04 581.783 1107.04 581.783C1107.04 581.783 1110.69 571.176 1101.8 566.842C1098.83 565.473 1095.53 565.587 1092.68 566.272C1094.84 565.017 1097.69 564.105 1101 564.561C1109.09 565.587 1111.37 571.29 1111.37 571.29C1111.37 571.29 1113.65 558.174 1101.91 558.174Z" fill="url(#paint12_linear)"/>
<path d="M999.418 476.744H995.77V717.975H999.418V476.744Z" fill="#0C5E59"/>
<path d="M1022.99 455.951C1014.09 455.951 1005.69 462.332 999.841 468.203C1003.78 462.588 1009.26 455.823 1013.45 454.419C1020.58 452.122 1026.56 453.27 1026.56 453.27C1026.56 453.27 1019.81 443.826 1009.89 448.293C1005.44 450.207 1001.75 456.461 999.078 462.46C1000.6 456.844 1001.62 450.207 1000.73 444.081C998.315 428.765 981.14 427.488 981.14 427.488C981.14 427.488 990.682 440.762 992.463 456.461C992.717 458.503 992.844 460.545 992.972 462.46C991.445 453.398 987.883 442.549 979.232 436.806C957.733 422.511 944.248 447.782 944.248 447.782C944.248 447.782 956.588 440.124 972.744 448.293C985.466 454.674 990.936 468.586 992.717 474.074C990.554 469.863 981.776 454.164 967.528 451.739C946.156 448.165 940.686 475.351 940.686 475.351C940.686 475.351 952.898 465.523 968.037 466.161C979.741 466.672 988.264 471.522 992.463 475.351C990.3 474.713 985.339 473.564 979.614 473.564C960.659 473.309 956.715 498.708 956.715 498.708L992.717 476.627C991.19 479.563 988.01 485.689 986.229 490.029C983.812 495.9 985.339 508.918 985.339 508.918C985.339 508.918 991.19 498.963 992.844 492.454C994.498 486.2 994.116 479.69 993.862 476.627L1018.29 503.047C1018.29 503.047 1024.27 486.965 1005.95 479.18C1003.53 478.159 1001.37 477.265 999.714 476.627C1004.17 477.265 1009.51 479.052 1014.98 482.626C1025.67 489.518 1032.41 498.963 1032.41 498.963C1032.41 498.963 1039.02 479.435 1022.74 471.777C1017.4 469.224 1011.29 469.607 1006.07 470.756C1010.02 468.459 1015.11 466.799 1021.34 467.565C1036.1 469.352 1040.17 479.946 1040.17 479.946C1040.17 479.946 1044.37 455.823 1022.99 455.951Z" fill="url(#paint13_linear)"/>
<path d="M921.06 689.595C918.78 679.102 915.018 669.179 910.001 660.054C909.317 658.8 908.519 657.431 907.721 656.176C901.907 646.482 894.724 637.813 886.402 630.285C885.376 629.259 884.236 628.346 883.096 627.434C874.203 620.02 864.056 613.975 853.112 609.641C851.744 609.071 850.376 608.615 849.007 608.158C838.063 604.28 826.206 602.113 814.007 601.885C813.323 601.885 812.525 601.885 811.841 601.885C811.157 601.885 810.359 601.885 809.675 601.885C797.362 602.113 785.619 604.28 774.675 608.158C773.307 608.615 771.939 609.185 770.57 609.641C759.626 613.975 749.479 620.02 740.587 627.434C739.447 628.346 738.306 629.373 737.28 630.285C728.958 637.813 721.661 646.482 715.961 656.176C715.163 657.431 714.479 658.8 713.681 660.054C708.665 669.179 704.902 679.102 702.622 689.595C702.28 691.078 702.052 692.561 701.71 694.043C700.57 700.431 700 706.932 700 713.547H923.568C923.568 706.932 922.998 700.316 921.858 694.043C921.63 692.561 921.402 691.078 921.06 689.595Z" fill="url(#paint14_linear)"/>
<path opacity="0.3" d="M809.676 601.771V713.547H814.008V601.771C813.324 601.771 812.526 601.771 811.842 601.771C811.044 601.771 810.36 601.771 809.676 601.771Z" fill="url(#paint15_linear)"/>
<path opacity="0.3" d="M770.57 609.641L798.388 713.661H802.834L774.561 608.158C773.306 608.615 771.938 609.071 770.57 609.641Z" fill="url(#paint16_linear)"/>
<path opacity="0.3" d="M737.28 630.285L785.391 713.547H790.294L740.586 627.434C739.446 628.346 738.306 629.373 737.28 630.285Z" fill="url(#paint17_linear)"/>
<path opacity="0.3" d="M713.681 660.054L767.264 713.661H773.307L715.847 656.176C715.163 657.431 714.365 658.8 713.681 660.054Z" fill="url(#paint18_linear)"/>
<path opacity="0.3" d="M701.71 694.043L735.57 713.547H744.235L702.622 689.481C702.28 691.078 702.052 692.561 701.71 694.043Z" fill="url(#paint19_linear)"/>
<path opacity="0.3" d="M820.734 713.661H825.181L852.998 609.641C851.63 609.071 850.262 608.615 848.894 608.158L820.734 713.661Z" fill="url(#paint20_linear)"/>
<path opacity="0.3" d="M833.274 713.661H838.291L886.402 630.399C885.376 629.373 884.236 628.461 883.096 627.548L833.274 713.661Z" fill="url(#paint21_linear)"/>
<g opacity="0.3">
<path d="M850.262 713.661H856.304L909.888 660.054C909.204 658.8 908.406 657.431 907.607 656.176L850.262 713.661Z" fill="url(#paint22_linear)"/>
</g>
<path d="M879.447 713.661H888.112L921.972 694.157C921.744 692.675 921.402 691.192 921.06 689.709L879.447 713.661Z" fill="#084F15"/>
<path d="M1004.74 698.378C1003.26 691.762 1000.87 685.375 997.673 679.558C997.217 678.76 996.761 677.961 996.305 677.049C992.657 670.89 988.097 665.415 982.738 660.625C982.054 660.054 981.37 659.37 980.572 658.8C974.872 654.123 968.488 650.245 961.533 647.508C960.735 647.166 959.823 646.824 958.911 646.596C951.956 644.086 944.432 642.718 936.68 642.604C936.223 642.604 935.767 642.604 935.311 642.604C934.855 642.604 934.399 642.604 933.943 642.604C926.191 642.718 918.666 644.2 911.712 646.596C910.8 646.938 910.002 647.166 909.09 647.508C902.135 650.245 895.751 654.123 890.051 658.8C889.367 659.37 888.682 660.054 887.884 660.625C882.526 665.415 877.966 670.89 874.318 677.049C873.862 677.847 873.405 678.646 872.949 679.558C869.757 685.375 867.363 691.648 865.881 698.378C865.653 699.29 865.539 700.316 865.311 701.229C864.627 705.221 864.171 709.441 864.171 713.661H1006.22C1006.22 709.441 1005.88 705.221 1005.08 701.229C1005.2 700.202 1004.97 699.29 1004.74 698.378Z" fill="url(#paint23_linear)"/>
<path opacity="0.3" d="M933.942 642.604V713.661H936.679V642.604C936.223 642.604 935.767 642.604 935.31 642.604C934.854 642.604 934.398 642.604 933.942 642.604Z" fill="url(#paint24_linear)"/>
<path opacity="0.3" d="M909.203 647.508L926.874 713.547H929.724L911.825 646.482C910.913 646.938 910.001 647.166 909.203 647.508Z" fill="url(#paint25_linear)"/>
<path opacity="0.3" d="M887.998 660.739L918.552 713.661H921.744L890.164 658.914C889.366 659.484 888.682 660.054 887.998 660.739Z" fill="url(#paint26_linear)"/>
<path opacity="0.3" d="M872.949 679.558L907.037 713.547H910.914L874.431 677.049C873.975 677.961 873.405 678.76 872.949 679.558Z" fill="url(#paint27_linear)"/>
<path opacity="0.3" d="M865.425 701.229L886.972 713.661H892.444L865.995 698.377C865.767 699.29 865.539 700.202 865.425 701.229Z" fill="url(#paint28_linear)"/>
<path opacity="0.3" d="M941.011 713.661H943.861L961.532 647.622C960.734 647.28 959.822 646.938 958.91 646.71L941.011 713.661Z" fill="url(#paint29_linear)"/>
<path opacity="0.3" d="M948.992 713.661H952.184L982.738 660.739C982.054 660.168 981.37 659.484 980.572 658.914L948.992 713.661Z" fill="url(#paint30_linear)"/>
<path opacity="0.3" d="M959.822 713.661H963.698L997.787 679.672C997.331 678.874 996.875 678.075 996.419 677.163L959.822 713.661Z" fill="url(#paint31_linear)"/>
<path opacity="0.3" d="M978.292 713.661H983.764L1005.31 701.229C1005.2 700.316 1004.97 699.29 1004.74 698.377L978.292 713.661Z" fill="url(#paint32_linear)"/>
<path d="M1290 706H-6V801.58H1290V706Z" fill="url(#paint33_linear)"/>
<mask id="mask4" mask-type="alpha" maskUnits="userSpaceOnUse" x="-6" y="706" width="1296" height="96">
<path d="M1290 706H-6V801.58H1290V706Z" fill="url(#paint34_linear)"/>
</mask>
<g mask="url(#mask4)">
<path opacity="0.7" fill-rule="evenodd" clip-rule="evenodd" d="M544.791 744.025C536.187 753.086 527.408 759.265 518.025 758.839C515.698 758.733 513.829 758.254 512.43 757.366C511.001 756.458 510.13 755.165 509.754 753.599C509.386 752.066 509.501 750.313 509.938 748.437C510.376 746.553 511.154 744.482 512.177 742.282C515.923 734.224 523.178 723.992 530.203 714.085L530.203 714.084L530.204 714.084C530.817 713.218 531.429 712.356 532.036 711.497C535.834 706.13 539.475 700.913 542.39 696.215C545.318 691.496 547.458 687.388 548.315 684.223C548.744 682.64 548.823 681.395 548.6 680.466C548.39 679.592 547.904 678.95 547.02 678.516C546.086 678.057 544.656 677.81 542.564 677.929C540.484 678.048 537.837 678.524 534.533 679.425C528.026 681.199 520.777 685.292 512.941 691.133C505.114 696.967 496.76 704.5 488.043 713.091C475.755 725.201 462.797 739.36 449.618 753.761L449.618 753.761L449.617 753.762C444.087 759.805 438.517 765.891 432.942 771.886C414.111 792.134 395.221 811.336 377.669 824.156C360.188 836.925 343.682 843.626 329.784 838.15C322.913 835.444 319.453 831.555 319.041 826.647C318.642 821.885 321.166 816.516 325.295 810.91C333.583 799.654 348.982 786.61 363.933 774.083C364.261 773.809 364.588 773.534 364.916 773.26L365.607 772.681L365.637 772.656C372.548 766.868 379.316 761.2 385.23 755.858C391.638 750.069 396.992 744.708 400.421 740.036C402.136 737.7 403.337 735.58 403.96 733.703C404.581 731.831 404.607 730.273 404.085 728.979C403.564 727.689 402.431 726.497 400.399 725.491C398.359 724.481 395.474 723.691 391.583 723.192C379.21 721.606 363.336 725.338 345.656 732.592C328.006 739.835 308.681 750.534 289.457 762.734C251.01 787.134 213.063 817.475 189.872 837.969L188.548 836.471C211.797 815.925 249.828 785.516 288.385 761.046C307.663 748.811 327.097 738.045 344.897 730.742C362.668 723.45 378.938 719.554 391.837 721.208C395.843 721.722 398.971 722.552 401.287 723.699C403.613 724.851 405.182 726.355 405.939 728.229C406.694 730.1 406.575 732.173 405.858 734.333C405.143 736.486 403.812 738.797 402.034 741.219C398.477 746.064 392.997 751.537 386.571 757.342C380.628 762.71 373.833 768.401 366.93 774.182L366.928 774.184L366.928 774.184L366.905 774.203C366.343 774.673 365.78 775.145 365.217 775.617C350.198 788.2 335.019 801.076 326.905 812.095C322.832 817.626 320.699 822.483 321.034 826.48C321.357 830.33 324.022 833.731 330.517 836.29C343.348 841.344 359.04 835.287 376.49 822.541C393.869 809.847 412.644 790.776 431.478 770.524C437.026 764.558 442.58 758.489 448.102 752.455L448.102 752.455C461.297 738.036 474.312 723.815 486.639 711.667C495.387 703.045 503.815 695.441 511.745 689.53C519.666 683.626 527.149 679.366 534.007 677.495C537.386 676.574 540.181 676.062 542.449 675.933C544.705 675.804 546.529 676.047 547.902 676.721C549.325 677.42 550.197 678.552 550.545 679.999C550.88 681.392 550.715 683.012 550.246 684.746C549.306 688.213 547.028 692.533 544.09 697.269C541.139 702.025 537.465 707.288 533.669 712.653C533.113 713.438 532.554 714.226 531.995 715.015L531.891 715.162L531.869 715.194C524.803 725.16 517.655 735.243 513.99 743.125C513.001 745.252 512.282 747.187 511.886 748.89C511.488 750.6 511.43 752.014 511.699 753.133C511.959 754.218 512.532 755.061 513.502 755.677C514.502 756.312 515.987 756.744 518.115 756.841C526.552 757.225 534.783 751.659 543.341 742.647C550.284 735.336 557.277 725.94 564.624 716.067L564.624 716.067L564.625 716.067L564.629 716.06L564.646 716.038C566.317 713.792 568.007 711.522 569.718 709.246C578.932 696.995 588.76 684.613 599.661 675.295C610.567 665.972 622.637 659.64 636.33 659.64V661.64C623.293 661.64 611.67 667.66 600.96 676.815C590.244 685.976 580.53 698.198 571.317 710.449C569.617 712.709 567.933 714.972 566.263 717.216L566.261 717.218L566.261 717.219C558.91 727.097 551.825 736.617 544.791 744.025ZM930.118 690.721C928.124 687.595 924.504 685.744 918.241 685.939C905.784 686.329 893.887 696.391 882.226 711.694C870.611 726.938 859.459 747.067 848.413 767.032L848.26 767.307L848.259 767.309C837.288 787.138 826.414 806.792 815.346 821.1C809.785 828.29 804.134 834.187 798.348 838.084C792.55 841.989 786.56 843.924 780.373 843.071C774.271 842.229 770.219 839.668 767.888 835.716C765.59 831.818 765.065 826.733 765.618 821.025C766.723 809.619 772.202 795.103 777.757 780.964C778.204 779.825 778.652 778.689 779.098 777.557C784.229 764.538 789.146 752.064 790.686 742.593C791.525 737.432 791.318 733.391 789.803 730.673C788.35 728.067 785.546 726.44 780.51 726.44C775.557 726.44 770.739 728.628 765.95 732.613C761.156 736.601 756.459 742.335 751.774 749.286C743.923 760.937 736.21 775.845 728.19 791.348L728.189 791.349L728.189 791.35C726.632 794.358 725.064 797.389 723.482 800.423C713.765 819.046 703.496 837.763 691.981 851.826C680.48 865.872 667.568 875.48 652.53 875.48C645.101 875.48 640.24 873.546 637.625 869.821C635.041 866.141 634.879 861.019 636.059 855.196C637.246 849.339 639.839 842.537 643.074 835.287C645.814 829.146 649.036 822.636 652.291 816.061L652.292 816.06L652.292 816.06L652.325 815.994C652.904 814.823 653.484 813.65 654.063 812.477C661.782 796.837 669.18 781.207 670.674 769.108C671.418 763.081 670.671 758.107 667.942 754.459C665.223 750.823 660.374 748.289 652.431 747.495C626.854 744.937 600.905 756.128 578.778 771.301C556.669 786.461 538.518 805.501 528.582 818.39L526.998 817.169C537.042 804.139 555.341 784.947 577.647 769.651C599.935 754.368 626.366 742.879 652.63 745.505C660.886 746.331 666.365 749.011 669.544 753.261C672.712 757.497 673.433 763.079 672.659 769.353C671.115 781.858 663.528 797.818 655.857 813.363C655.265 814.563 654.672 815.76 654.08 816.955L654.08 816.956C650.824 823.533 647.623 830.001 644.9 836.102C641.68 843.319 639.161 849.958 638.019 855.593C636.87 861.262 637.163 865.683 639.262 868.672C641.33 871.618 645.38 873.48 652.53 873.48C666.652 873.48 679.052 864.458 690.434 850.559C701.801 836.677 711.985 818.134 721.708 799.497C723.282 796.482 724.844 793.463 726.396 790.462C734.415 774.961 742.193 759.925 750.116 748.169C754.847 741.148 759.668 735.238 764.67 731.075C769.677 726.91 774.933 724.44 780.51 724.44C786.004 724.44 789.63 726.256 791.55 729.699C793.407 733.031 793.517 737.646 792.66 742.914C791.083 752.611 786.084 765.29 780.985 778.225C780.529 779.381 780.073 780.538 779.618 781.696C774.035 795.907 768.681 810.146 767.609 821.218C767.073 826.748 767.625 831.332 769.611 834.7C771.564 838.012 775.004 840.311 780.647 841.089C786.206 841.856 791.706 840.146 797.23 836.425C802.765 832.698 808.264 826.988 813.764 819.877C824.738 805.689 835.552 786.143 846.569 766.233L846.663 766.063C857.689 746.136 868.913 725.866 880.636 710.482C892.313 695.157 904.716 684.361 918.179 683.94C924.876 683.731 929.305 685.728 931.804 689.645C934.24 693.463 934.676 698.872 934.038 705.115C933.396 711.392 931.643 718.719 929.482 726.526C928.401 730.435 927.214 734.477 926.008 738.58L925.953 738.765L925.95 738.776L925.948 738.783C924.761 742.823 923.556 746.921 922.413 751.021C920.088 759.362 918.026 767.679 916.89 775.466C915.753 783.26 915.553 790.458 916.908 796.58C918.258 802.677 921.141 807.682 926.178 811.184C931.238 814.702 938.581 816.78 948.99 816.78V818.78C938.339 818.78 930.546 816.656 925.037 812.827C919.506 808.982 916.391 803.495 914.956 797.012C913.526 790.553 913.757 783.083 914.911 775.177C916.065 767.264 918.155 758.85 920.487 750.484C921.634 746.367 922.843 742.255 924.03 738.216L924.089 738.016C925.296 733.911 926.478 729.884 927.555 725.993C929.71 718.201 931.425 711.011 932.048 704.911C932.676 698.775 932.175 693.946 930.118 690.721ZM1243.17 785.093C1241.3 778.859 1237.38 772.044 1232.16 764.961C1226.94 757.869 1220.39 750.455 1213.21 743.021C1201.25 730.633 1187.48 718.138 1175.15 706.943L1175.15 706.942C1172.69 704.706 1170.28 702.522 1167.96 700.402C1160.97 694.023 1154.74 688.219 1149.94 683.275C1145.09 678.294 1141.82 674.301 1140.61 671.53C1140 670.13 1140.04 669.328 1140.3 668.885C1140.55 668.45 1141.23 667.963 1142.95 667.792C1146.36 667.453 1152.62 668.483 1162.56 671.322L1163.11 669.398C1153.2 666.567 1146.59 665.42 1142.75 665.802C1140.85 665.992 1139.31 666.59 1138.56 667.891C1137.82 669.184 1138.1 670.768 1138.78 672.329C1140.15 675.481 1143.69 679.715 1148.5 684.669C1153.35 689.66 1159.63 695.5 1166.61 701.878C1168.94 704.001 1171.34 706.183 1173.8 708.415L1173.82 708.436C1186.15 719.633 1199.86 732.074 1211.77 744.41C1218.92 751.81 1225.41 759.153 1230.55 766.147C1235.71 773.15 1239.48 779.751 1241.25 785.667C1242.15 788.673 1242.68 791.087 1242.88 792.979C1243.07 794.891 1242.92 796.163 1242.57 796.959C1242.26 797.679 1241.77 798.042 1241.05 798.171C1240.25 798.315 1239.11 798.17 1237.57 797.647C1234.52 796.604 1230.38 794.228 1225.34 790.869C1220.31 787.524 1214.46 783.26 1207.97 778.499C1207.17 777.91 1206.36 777.313 1205.54 776.71C1193.11 767.573 1178.6 756.907 1163.45 747.622C1147.32 737.729 1130.4 729.355 1114.43 726.08C1106.53 724.459 1100.98 723.776 1097.42 723.967C1095.66 724.061 1094.24 724.376 1093.27 725.025C1092.76 725.362 1092.37 725.798 1092.12 726.342C1091.88 726.883 1091.83 727.463 1091.9 728.043C1092.04 729.164 1092.66 730.382 1093.54 731.641C1094.44 732.922 1095.68 734.349 1097.2 735.902C1100.22 739.009 1104.42 742.706 1109.33 746.859C1112.24 749.319 1115.41 751.943 1118.74 754.706C1126.69 761.296 1135.6 768.681 1144.31 776.554C1156.67 787.726 1168.55 799.81 1176.58 811.855C1178.59 814.866 1179.91 817.271 1180.64 819.144C1181.38 821.057 1181.43 822.224 1181.18 822.883C1180.98 823.42 1180.49 823.854 1179.29 824.009C1178.06 824.168 1176.3 823.992 1174.02 823.463C1169.47 822.409 1163.18 820.042 1155.56 816.788C1147.96 813.539 1139.11 809.433 1129.44 804.926L1127.02 803.802C1108.24 795.047 1086.63 784.973 1065.46 776.878C1043.39 768.441 1021.69 762.109 1004.09 761.7C997.072 761.537 991.819 762.234 988.125 763.702C984.396 765.185 982.177 767.495 981.46 770.53C980.761 773.49 981.549 776.918 983.292 780.559C985.044 784.22 987.824 788.229 991.314 792.419C1005.26 809.16 1031.03 829.393 1050.48 842.901L1051.62 841.259C1032.19 827.767 1006.61 807.662 992.851 791.139C989.415 787.013 986.748 783.148 985.096 779.696C983.434 776.224 982.861 773.3 983.407 770.989C983.935 768.752 985.569 766.871 988.864 765.561C992.195 764.236 997.137 763.539 1004.05 763.7C1021.28 764.101 1042.71 770.324 1064.74 778.746C1085.85 786.815 1107.4 796.862 1126.2 805.624L1128.59 806.739C1138.26 811.243 1147.14 815.363 1154.78 818.627C1162.4 821.884 1168.83 824.314 1173.57 825.411C1175.92 825.958 1177.96 826.197 1179.54 825.993C1181.15 825.785 1182.5 825.078 1183.06 823.58C1183.57 822.205 1183.29 820.443 1182.5 818.418C1181.7 816.352 1180.29 813.809 1178.24 810.745C1170.07 798.49 1158.05 786.274 1145.66 775.07C1136.91 767.168 1127.95 759.735 1119.98 753.136L1119.98 753.134C1116.66 750.379 1113.51 747.769 1110.62 745.331C1105.71 741.181 1101.58 737.538 1098.63 734.506C1097.15 732.99 1095.99 731.649 1095.18 730.492C1094.35 729.313 1093.96 728.424 1093.88 727.798C1093.85 727.505 1093.89 727.302 1093.95 727.154C1094.02 727.008 1094.14 726.849 1094.38 726.689C1094.9 726.343 1095.88 726.053 1097.53 725.964C1100.81 725.788 1106.14 726.421 1114.03 728.04C1129.65 731.245 1146.34 739.476 1162.41 749.327C1177.48 758.566 1191.92 769.186 1204.36 778.329L1204.37 778.33C1205.18 778.931 1205.99 779.524 1206.79 780.111C1213.27 784.868 1219.16 789.159 1224.23 792.534C1229.28 795.896 1233.6 798.405 1236.93 799.54C1238.58 800.105 1240.11 800.371 1241.4 800.14C1242.78 799.894 1243.82 799.096 1244.41 797.76C1244.96 796.498 1245.08 794.819 1244.86 792.774C1244.65 790.709 1244.09 788.162 1243.17 785.093Z" fill="url(#paint35_linear)"/>
<path opacity="0.1" d="M382.157 739.448C248.927 739.448 226.557 783.701 -8.43018 783.701V853.42H1290V704.38C1004.91 704.38 1041.6 766.584 796.032 766.584C550.459 766.584 497.534 739.448 382.157 739.448Z" fill="url(#paint36_linear)"/>
</g>
<path opacity="0.2" d="M469.507 411.869C583.589 297.787 583.629 112.784 469.598 -1.34713C355.566 -115.478 170.644 -115.519 56.5626 -1.43723C-57.5188 112.644 -57.5592 297.647 56.4724 411.778C170.504 525.91 355.426 525.95 469.507 411.869Z" fill="url(#paint37_linear)"/>
<path d="M73.4381 430.741H78.9824V797.347H73.4381V430.741Z" fill="#0C5E59"/>
<path d="M37.6076 399.141C51.141 399.141 63.9012 408.839 72.7946 417.762C66.8012 409.227 58.4878 398.947 52.1077 396.813C41.281 393.322 32.1942 395.068 32.1942 395.068C32.1942 395.068 42.4409 380.714 57.5211 387.503C64.2878 390.412 69.8945 399.917 73.9545 409.033C71.6345 400.499 70.0879 390.412 71.4412 381.102C75.1146 357.826 101.215 355.886 101.215 355.886C101.215 355.886 86.7147 376.059 84.008 399.917C83.6213 403.02 83.4279 406.124 83.2346 409.033C85.5546 395.262 90.9681 378.774 104.115 370.046C136.788 348.321 157.282 386.727 157.282 386.727C157.282 386.727 138.528 375.089 113.975 387.503C94.6414 397.201 86.328 418.344 83.6213 426.684C86.908 420.284 100.248 396.425 121.902 392.74C154.382 387.309 162.695 428.624 162.695 428.624C162.695 428.624 144.135 413.689 121.128 414.658C103.341 415.434 90.388 422.805 84.008 428.624C87.2947 427.654 94.8347 425.909 103.535 425.909C132.342 425.521 138.335 464.12 138.335 464.12L83.6213 430.564C85.9413 435.025 90.7747 444.336 93.4814 450.93C97.1548 459.853 94.8347 479.638 94.8347 479.638C94.8347 479.638 85.9413 464.508 83.428 454.616C80.9146 445.111 81.4947 435.219 81.8813 430.564L44.761 470.715C44.761 470.715 35.6743 446.275 63.5145 434.443C67.1879 432.891 70.4745 431.534 72.9879 430.564C66.2211 431.534 58.1011 434.249 49.7877 439.68C33.5475 450.155 23.3008 464.508 23.3008 464.508C23.3008 464.508 13.2474 434.831 37.9943 423.193C46.1143 419.314 55.3944 419.896 63.3211 421.641C57.3277 418.15 49.5943 415.628 40.1209 416.792C17.6941 419.508 11.5074 435.607 11.5074 435.607C11.5074 435.607 5.12732 398.947 37.6076 399.141Z" fill="url(#paint38_linear)"/>
<path d="M231.375 773.59C228.988 762.607 225.05 752.221 219.8 742.671C219.084 741.358 218.249 739.925 217.414 738.612C211.328 728.465 203.81 719.392 195.099 711.513C194.025 710.439 192.832 709.483 191.639 708.528C182.331 700.769 171.711 694.442 160.256 689.905C158.824 689.308 157.392 688.831 155.96 688.353C144.505 684.295 132.095 682.026 119.327 681.788C118.611 681.788 117.776 681.788 117.06 681.788C116.344 681.788 115.508 681.788 114.792 681.788C101.905 682.026 89.6145 684.295 78.1591 688.353C76.7272 688.831 75.2953 689.428 73.8633 689.905C62.408 694.442 51.7879 700.769 42.4804 708.528C41.2871 709.483 40.0938 710.558 39.0199 711.513C30.309 719.392 22.6721 728.465 16.7058 738.612C15.8705 739.925 15.1545 741.358 14.3192 742.671C9.06884 752.221 5.13108 762.607 2.74454 773.59C2.38656 775.142 2.14788 776.694 1.7899 778.246C0.596634 784.931 0 791.736 0 798.66H234C234 791.736 233.403 784.812 232.21 778.246C231.971 776.694 231.733 775.142 231.375 773.59Z" fill="url(#paint39_linear)"/>
<path fill-rule="evenodd" clip-rule="evenodd" d="M114.793 681.668V798.66H119.327V681.668H117.06H114.793ZM73.8635 689.905L102.979 798.779H107.633L78.04 688.353C77.696 688.479 77.3438 688.604 76.9855 688.731L76.9854 688.731L76.9853 688.731L76.9852 688.731L76.9852 688.731L76.9851 688.731L76.985 688.731L76.9849 688.731C75.9764 689.09 74.92 689.465 73.8635 689.905ZM89.376 798.66L39.0201 711.513L39.3425 711.226L39.3427 711.226C40.3305 710.346 41.4055 709.389 42.4805 708.528L94.507 798.66H89.376ZM14.3194 742.671L70.4031 798.779H76.7274L16.5866 738.612C16.2286 739.269 15.8408 739.955 15.453 740.641C15.0652 741.328 14.6774 742.014 14.3194 742.671ZM37.2301 798.66L1.79004 778.246C1.98763 777.389 2.14888 776.533 2.3139 775.656L2.31392 775.656C2.44786 774.944 2.5843 774.219 2.74468 773.471L46.299 798.66H37.2301ZM126.367 798.779H131.021L160.137 689.905C158.705 689.308 157.273 688.831 155.841 688.353L126.367 798.779ZM144.744 798.779H139.493L191.639 708.648C192.832 709.603 194.026 710.558 195.1 711.632L144.744 798.779ZM157.273 798.779H163.597L219.681 742.671C218.965 741.358 218.13 739.925 217.294 738.612L157.273 798.779ZM196.89 798.779H187.821L231.375 773.709C231.733 775.261 232.091 776.813 232.33 778.365L196.89 798.779Z" fill="url(#paint40_linear)"/>
<path d="M65.373 683.941C54.4039 683.941 50.2904 674.339 50.2904 660.965C50.2904 647.59 46.5197 636.616 31.7799 635.931C12.584 635.245 14.298 653.763 14.298 676.397C14.298 705.203 4.01441 686.685 -10.3825 702.803C-22.7228 716.52 -6.95461 740.869 -2.15563 748.07H59.8883C61.945 744.298 67.0867 735.039 72.9141 723.722C85.9399 699.716 76.3421 683.941 65.373 683.941Z" fill="url(#paint41_linear)"/>
<path opacity="0.2" fill-rule="evenodd" clip-rule="evenodd" d="M35.8935 688.4H32.8086V731.407L19.8495 714.121L17.3813 715.973L32.8086 736.551V748.07H35.8935V715.576L48.966 699.356L46.5644 697.418L35.8935 710.659V688.4Z" fill="white"/>
<path d="M78.0558 748.413H-13.8105V799.511H78.0558V748.413Z" fill="white"/>
<path d="M1285 -3H0V797H1185C1240.23 797 1285 752.228 1285 697V-3Z" fill="url(#paint42_linear)"/>
</g>
<defs>
<linearGradient id="paint0_linear" x1="793" y1="987" x2="-63.5252" y2="255.836" gradientUnits="userSpaceOnUse">
<stop stop-color="#FFEDBA"/>
<stop offset="1" stop-color="#EE4D47"/>
</linearGradient>
<linearGradient id="paint1_linear" x1="865" y1="-215" x2="865" y2="889" gradientUnits="userSpaceOnUse">
<stop stop-color="#F4A984"/>
<stop offset="1" stop-color="#F4A984" stop-opacity="0"/>
</linearGradient>
<linearGradient id="paint2_linear" x1="1098.95" y1="444.562" x2="1098.95" y2="724.313" gradientUnits="userSpaceOnUse">
<stop offset="0.240793" stop-color="#2CA77F"/>
<stop offset="1" stop-color="#1B8877"/>
</linearGradient>
<linearGradient id="paint3_linear" x1="1098.95" y1="444.562" x2="1098.95" y2="724.313" gradientUnits="userSpaceOnUse">
<stop offset="0.240793" stop-color="#2CA77F"/>
<stop offset="1" stop-color="#1B8877"/>
</linearGradient>
<linearGradient id="paint4_linear" x1="1098.95" y1="444.562" x2="1098.95" y2="724.313" gradientUnits="userSpaceOnUse">
<stop offset="0.240793" stop-color="#2CA77F"/>
<stop offset="1" stop-color="#1B8877"/>
</linearGradient>
<linearGradient id="paint5_linear" x1="1105.84" y1="455.726" x2="1105.84" y2="709.866" gradientUnits="userSpaceOnUse">
<stop stop-color="white"/>
<stop offset="1" stop-color="white" stop-opacity="0"/>
</linearGradient>
<linearGradient id="paint6_linear" x1="1216.82" y1="524.679" x2="1216.82" y2="718.403" gradientUnits="userSpaceOnUse">
<stop offset="0.422311" stop-color="#2CA77F"/>
<stop offset="1" stop-color="#1B8877"/>
</linearGradient>
<linearGradient id="paint7_linear" x1="1216.82" y1="524.679" x2="1216.82" y2="718.403" gradientUnits="userSpaceOnUse">
<stop offset="0.422311" stop-color="#2CA77F"/>
<stop offset="1" stop-color="#1B8877"/>
</linearGradient>
<linearGradient id="paint8_linear" x1="1215.84" y1="554.23" x2="1215.84" y2="712.493" gradientUnits="userSpaceOnUse">
<stop stop-color="white"/>
<stop offset="1" stop-color="white" stop-opacity="0"/>
</linearGradient>
<linearGradient id="paint9_linear" x1="910.478" y1="473.457" x2="910.478" y2="765.803" gradientUnits="userSpaceOnUse">
<stop offset="0.422311" stop-color="#2CA77F"/>
<stop offset="1" stop-color="#1B8877"/>
</linearGradient>
<linearGradient id="paint10_linear" x1="910.478" y1="473.457" x2="910.478" y2="765.803" gradientUnits="userSpaceOnUse">
<stop offset="0.422311" stop-color="#2CA77F"/>
<stop offset="1" stop-color="#1B8877"/>
</linearGradient>
<linearGradient id="paint11_linear" x1="902.269" y1="531.897" x2="902.269" y2="739.254" gradientUnits="userSpaceOnUse">
<stop stop-color="white"/>
<stop offset="1" stop-color="white" stop-opacity="0"/>
</linearGradient>
<linearGradient id="paint12_linear" x1="1084.16" y1="528.011" x2="1084.16" y2="587.03" gradientUnits="userSpaceOnUse">
<stop stop-color="#D3D86C"/>
<stop offset="1" stop-color="#82A637"/>
</linearGradient>
<linearGradient id="paint13_linear" x1="990.594" y1="400.877" x2="990.594" y2="508.918" gradientUnits="userSpaceOnUse">
<stop stop-color="#D3D86C"/>
<stop offset="1" stop-color="#82A637"/>
</linearGradient>
<linearGradient id="paint14_linear" x1="811.784" y1="565.394" x2="811.784" y2="713.547" gradientUnits="userSpaceOnUse">
<stop stop-color="#D3D86C"/>
<stop offset="1" stop-color="#82A637"/>
</linearGradient>
<linearGradient id="paint15_linear" x1="811.842" y1="601.771" x2="811.842" y2="713.547" gradientUnits="userSpaceOnUse">
<stop stop-color="#084F15" stop-opacity="0"/>
<stop offset="1" stop-color="#084F15"/>
</linearGradient>
<linearGradient id="paint16_linear" x1="786.702" y1="608.158" x2="786.702" y2="713.661" gradientUnits="userSpaceOnUse">
<stop stop-color="#084F15" stop-opacity="0"/>
<stop offset="1" stop-color="#084F15"/>
</linearGradient>
<linearGradient id="paint17_linear" x1="763.787" y1="627.434" x2="763.787" y2="713.547" gradientUnits="userSpaceOnUse">
<stop stop-color="#084F15" stop-opacity="0"/>
<stop offset="1" stop-color="#084F15"/>
</linearGradient>
<linearGradient id="paint18_linear" x1="743.494" y1="656.176" x2="743.494" y2="713.661" gradientUnits="userSpaceOnUse">
<stop stop-color="#084F15" stop-opacity="0"/>
<stop offset="1" stop-color="#084F15"/>
</linearGradient>
<linearGradient id="paint19_linear" x1="722.972" y1="689.481" x2="722.972" y2="713.547" gradientUnits="userSpaceOnUse">
<stop stop-color="#084F15" stop-opacity="0"/>
<stop offset="1" stop-color="#084F15"/>
</linearGradient>
<linearGradient id="paint20_linear" x1="836.866" y1="608.158" x2="836.866" y2="713.661" gradientUnits="userSpaceOnUse">
<stop stop-color="#084F15" stop-opacity="0"/>
<stop offset="1" stop-color="#084F15"/>
</linearGradient>
<linearGradient id="paint21_linear" x1="859.838" y1="627.548" x2="859.838" y2="713.661" gradientUnits="userSpaceOnUse">
<stop stop-color="#084F15" stop-opacity="0"/>
<stop offset="1" stop-color="#084F15"/>
</linearGradient>
<linearGradient id="paint22_linear" x1="880.075" y1="656.176" x2="880.075" y2="713.661" gradientUnits="userSpaceOnUse">
<stop stop-color="#084F15" stop-opacity="0"/>
<stop offset="1" stop-color="#084F15"/>
</linearGradient>
<linearGradient id="paint23_linear" x1="935.197" y1="619.382" x2="935.197" y2="713.661" gradientUnits="userSpaceOnUse">
<stop stop-color="#D3D86C"/>
<stop offset="1" stop-color="#82A637"/>
</linearGradient>
<linearGradient id="paint24_linear" x1="935.31" y1="642.604" x2="935.31" y2="713.661" gradientUnits="userSpaceOnUse">
<stop stop-color="#084F15" stop-opacity="0"/>
<stop offset="1" stop-color="#084F15"/>
</linearGradient>
<linearGradient id="paint25_linear" x1="919.464" y1="646.482" x2="919.464" y2="713.547" gradientUnits="userSpaceOnUse">
<stop stop-color="#084F15" stop-opacity="0"/>
<stop offset="1" stop-color="#084F15"/>
</linearGradient>
<linearGradient id="paint26_linear" x1="904.871" y1="658.914" x2="904.871" y2="713.661" gradientUnits="userSpaceOnUse">
<stop stop-color="#084F15" stop-opacity="0"/>
<stop offset="1" stop-color="#084F15"/>
</linearGradient>
<linearGradient id="paint27_linear" x1="891.931" y1="677.049" x2="891.931" y2="713.547" gradientUnits="userSpaceOnUse">
<stop stop-color="#084F15" stop-opacity="0"/>
<stop offset="1" stop-color="#084F15"/>
</linearGradient>
<linearGradient id="paint28_linear" x1="878.935" y1="698.377" x2="878.935" y2="713.661" gradientUnits="userSpaceOnUse">
<stop stop-color="#084F15" stop-opacity="0"/>
<stop offset="1" stop-color="#084F15"/>
</linearGradient>
<linearGradient id="paint29_linear" x1="951.271" y1="646.71" x2="951.271" y2="713.661" gradientUnits="userSpaceOnUse">
<stop stop-color="#084F15" stop-opacity="0"/>
<stop offset="1" stop-color="#084F15"/>
</linearGradient>
<linearGradient id="paint30_linear" x1="965.865" y1="658.914" x2="965.865" y2="713.661" gradientUnits="userSpaceOnUse">
<stop stop-color="#084F15" stop-opacity="0"/>
<stop offset="1" stop-color="#084F15"/>
</linearGradient>
<linearGradient id="paint31_linear" x1="978.804" y1="677.163" x2="978.804" y2="713.661" gradientUnits="userSpaceOnUse">
<stop stop-color="#084F15" stop-opacity="0"/>
<stop offset="1" stop-color="#084F15"/>
</linearGradient>
<linearGradient id="paint32_linear" x1="991.802" y1="698.377" x2="991.802" y2="713.661" gradientUnits="userSpaceOnUse">
<stop stop-color="#084F15" stop-opacity="0"/>
<stop offset="1" stop-color="#084F15"/>
</linearGradient>
<linearGradient id="paint33_linear" x1="319.869" y1="425.786" x2="319.869" y2="894.717" gradientUnits="userSpaceOnUse">
<stop offset="0.278352" stop-color="#EEEF99"/>
<stop offset="0.76976" stop-color="#B9D079"/>
</linearGradient>
<linearGradient id="paint34_linear" x1="319.869" y1="425.786" x2="319.869" y2="894.717" gradientUnits="userSpaceOnUse">
<stop offset="0.278352" stop-color="#EEEF99"/>
<stop offset="0.76976" stop-color="#B9D079"/>
</linearGradient>
<linearGradient id="paint35_linear" x1="716.755" y1="710.737" x2="716.755" y2="923.053" gradientUnits="userSpaceOnUse">
<stop stop-color="white"/>
<stop offset="1" stop-color="white" stop-opacity="0"/>
</linearGradient>
<linearGradient id="paint36_linear" x1="640.785" y1="647.774" x2="640.785" y2="857.992" gradientUnits="userSpaceOnUse">
<stop offset="0.164151" stop-color="#82A637"/>
<stop offset="0.890649" stop-color="#1B8877"/>
</linearGradient>
<linearGradient id="paint37_linear" x1="56.5841" y1="-99.4676" x2="56.6618" y2="256.265" gradientUnits="userSpaceOnUse">
<stop stop-color="white"/>
<stop offset="1" stop-color="white" stop-opacity="0"/>
</linearGradient>
<linearGradient id="paint38_linear" x1="86.8476" y1="315.444" x2="86.8476" y2="479.638" gradientUnits="userSpaceOnUse">
<stop stop-color="#D3D86C"/>
<stop offset="1" stop-color="#82A637"/>
</linearGradient>
<linearGradient id="paint39_linear" x1="117" y1="643.593" x2="117" y2="798.66" gradientUnits="userSpaceOnUse">
<stop stop-color="#D3D86C"/>
<stop offset="1" stop-color="#82A637"/>
</linearGradient>
<linearGradient id="paint40_linear" x1="210.075" y1="681.397" x2="210.075" y2="952.894" gradientUnits="userSpaceOnUse">
<stop stop-color="#084F15" stop-opacity="0"/>
<stop offset="1" stop-color="#084F15"/>
</linearGradient>
<linearGradient id="paint41_linear" x1="32.0952" y1="635.912" x2="32.0952" y2="770.859" gradientUnits="userSpaceOnUse">
<stop offset="0.422311" stop-color="#2CA77F"/>
<stop offset="1" stop-color="#1B8877"/>
</linearGradient>
<linearGradient id="paint42_linear" x1="892.272" y1="461" x2="892.272" y2="-231" gradientUnits="userSpaceOnUse">
<stop stop-color="#FFEDBA" stop-opacity="0"/>
<stop offset="1" stop-color="#EB2A24"/>
</linearGradient>
</defs>
</svg>
